# xmcd
#
# Track frame offsets: 
#        150
#        11362
#        25728
#        39017
#        53360
#        70612
#        87577
#        103988
#        119618
#        132836
#        143806
#        155143
#        166830
#
# Disc length: 2370 seconds
#
# Revision: 0
# Processed by: cddbd v1.5.2PL0 Copyright (c) Steve Scherf et al.
# Submitted via: ExactAudioCopyFreeDBPlugin 1.0
#
DISCID=a109400d
DTITLE=Adam Steffey - New Primitive
DYEAR=2013
DGENRE=Bluegrass
TTITLE0=Johnny Don't Get Drunk
TTITLE1=Raleigh and Spencer 
TTITLE2=Goodbye Girls I'm Going To Boston 
TTITLE3=New Five Cent Piece 
TTITLE4=Cluck Old Hen 
TTITLE5=Who Now Will Sing Me Lullabies
TTITLE6=Chinquapin Hunting 
TTITLE7=Squirrel Hunters
TTITLE8=Garfield's Blackberry Blossom 
TTITLE9=Big Eyed Rabbit 
TTITLE10=Fine Times At Our House 
TTITLE11=Rock The Cradle Joe 
TTITLE12=Ways Of The World 
EXTD=
EXTT0=
EXTT1=
EXTT2=
EXTT3=
EXTT4=
EXTT5=
EXTT6=
EXTT7=
EXTT8=
EXTT9=
EXTT10=
EXTT11=
EXTT12=
PLAYORDER=
